<svg xmlns="http://www.w3.org/2000/svg" xmlns:xlink="http://www.w3.org/1999/xlink" viewBox="0 0 100 125" version="1.1" xml:space="preserve" style="" x="0px" y="0px" fill-rule="evenodd" clip-rule="evenodd" stroke-linejoin="round" stroke-miterlimit="1.41421"><g transform="matrix(1,0,0,1,-5,0)"><path d="M90.174,9.015C90.323,9.055 90.365,9.056 90.5,9.134C90.702,9.251 90.86,9.438 90.94,9.658C90.993,9.805 90.987,9.846 91,10L91,90C90.987,90.154 90.993,90.195 90.94,90.342C90.839,90.618 90.618,90.839 90.342,90.94C90.195,90.993 90.154,90.987 90,91L80,91C79.846,90.987 79.805,90.993 79.658,90.94C79.382,90.839 79.161,90.618 79.06,90.342C79.007,90.195 79.013,90.154 79,90L79,10C79.013,9.846 79.007,9.805 79.06,9.658C79.161,9.382 79.382,9.161 79.658,9.06C79.805,9.007 79.846,9.013 80,9L90,9C90.058,9.005 90.116,9.01 90.174,9.015ZM81,11L81,89L89,89L89,11C86.333,11 83.667,11 81,11Z" style="" fill="black" fill-rule="nonzero"/></g><g transform="matrix(1,0,0,0.75,-25,22.5)"><rect x="80" y="10" width="10" height="80" style="" fill="black"/></g><g transform="matrix(1,0,0,0.5,-45,45)"><rect x="80" y="10" width="10" height="80" style="" fill="black"/></g><g transform="matrix(1,0,0,0.25,-65,67.5)"><rect x="80" y="10" width="10" height="80" style="" fill="black"/></g></svg>